<svg width="24" height="24" viewBox="0 0 24 24" fill="none" xmlns="http://www.w3.org/2000/svg">
<path d="M19.8445 10.4332H19.2001V10.4H12V13.6H16.5213C15.8617 15.4628 14.0892 16.8001 12 16.8001C9.34922 16.8001 7.20001 14.6508 7.20001 12C7.20001 9.34922 9.34922 7.20001 12 7.20001C13.2236 7.20001 14.3368 7.66162 15.1844 8.41562L17.4473 6.15281C16.0185 4.8212 14.1072 4 12 4C7.58202 4 4 7.58202 4 12C4 16.4181 7.58202 20.0001 12 20.0001C16.4181 20.0001 20.0001 16.4181 20.0001 12C20.0001 11.4636 19.9449 10.94 19.8445 10.4332Z" fill="#FFC107"/>
<path d="M4.92188 8.27642L7.55029 10.204C8.26149 8.44322 9.9839 7.20001 11.9995 7.20001C13.2231 7.20001 14.3363 7.66162 15.1839 8.41562L17.4467 6.15281C16.0179 4.8212 14.1067 4 11.9995 4C8.92669 4 6.26188 5.73481 4.92188 8.27642Z" fill="#FF3D00"/>
<path d="M12 20.0005C14.0664 20.0005 15.944 19.2097 17.3636 17.9237L14.8876 15.8285C14.0844 16.4369 13.086 16.8005 12 16.8005C9.91915 16.8005 8.15234 15.4737 7.48674 13.6221L4.87793 15.6321C6.20194 18.2229 8.89075 20.0005 12 20.0005Z" fill="#4CAF50"/>
<path d="M19.8444 10.4331H19.2V10.3999H12V13.5999H16.5212C16.2044 14.4947 15.6288 15.2663 14.8864 15.8283C14.8868 15.8279 14.8872 15.8279 14.8876 15.8275L17.3636 17.9227C17.1884 18.0819 20 15.9999 20 11.9999C20 11.4635 19.9448 10.9399 19.8444 10.4331Z" fill="#1976D2"/>
</svg>
