<svg width="24" height="24" viewBox="0 0 24 24" fill="none" xmlns="http://www.w3.org/2000/svg">
<path d="M9.1875 20.7743C9.49816 20.7743 9.75 20.5251 9.75 20.2178C9.75 19.9105 9.49816 19.6614 9.1875 19.6614C8.87684 19.6614 8.625 19.9105 8.625 20.2178C8.625 20.5251 8.87684 20.7743 9.1875 20.7743Z" fill="#9098B1" stroke="#9098B1" stroke-width="2" stroke-miterlimit="10" stroke-linecap="round" stroke-linejoin="round"/>
<path d="M17.0625 20.7743C17.3732 20.7743 17.625 20.5251 17.625 20.2178C17.625 19.9105 17.3732 19.6614 17.0625 19.6614C16.7518 19.6614 16.5 19.9105 16.5 20.2178C16.5 20.5251 16.7518 20.7743 17.0625 20.7743Z" fill="#9098B1" stroke="#9098B1" stroke-width="2" stroke-miterlimit="10" stroke-linecap="round" stroke-linejoin="round"/>
<path d="M3 2.96777H5.25L7.5 16.3226H18.75L21 6.30648H6.375" stroke="#9098B1" stroke-width="2" stroke-linecap="round" stroke-linejoin="round"/>
</svg>
