<svg width="24" height="24" viewBox="0 0 24 24" fill="none" xmlns="http://www.w3.org/2000/svg">
<path fill-rule="evenodd" clip-rule="evenodd" d="M12 3.9575C10.3971 3.9575 9.09766 5.24296 9.09766 6.82867C9.09766 8.41437 10.3971 9.69984 12 9.69984C13.603 9.69984 14.9024 8.41437 14.9024 6.82867C14.9024 5.24296 13.603 3.9575 12 3.9575ZM7.09766 6.82867C7.09766 4.15027 9.29253 1.979 12 1.979C14.7075 1.979 16.9024 4.15027 16.9024 6.82867C16.9024 9.50706 14.7075 11.6783 12 11.6783C9.29253 11.6783 7.09766 9.50706 7.09766 6.82867Z" fill="#9098B1"/>
<path fill-rule="evenodd" clip-rule="evenodd" d="M9.51784 15.2248C6.47035 15.2248 4 17.6686 4 20.6833V20.7735C4 21.3198 3.55228 21.7627 3 21.7627C2.44772 21.7627 2 21.3198 2 20.7735V20.6833C2 16.5759 5.36578 13.2463 9.51784 13.2463H14.4822C18.6342 13.2463 22 16.5759 22 20.6833V20.7735C22 21.3198 21.5523 21.7627 21 21.7627C20.4477 21.7627 20 21.3198 20 20.7735V20.6833C20 17.6686 17.5296 15.2248 14.4822 15.2248H9.51784Z" fill="#9098B1"/>
</svg>
