<svg width="20" height="20" viewBox="0 0 20 20" fill="none" xmlns="http://www.w3.org/2000/svg">
<g opacity="0.5">
<path fill-rule="evenodd" clip-rule="evenodd" d="M14.7143 5.28616C15.0397 5.61159 15.0397 6.13923 14.7143 6.46467L6.46468 14.7142C6.13924 15.0397 5.6116 15.0397 5.28617 14.7142C4.96073 14.3888 4.96073 13.8612 5.28617 13.5357L13.5357 5.28616C13.8612 4.96072 14.3888 4.96072 14.7143 5.28616Z" fill="#223263"/>
<path fill-rule="evenodd" clip-rule="evenodd" d="M5.28574 5.28616C5.61118 4.96072 6.13882 4.96072 6.46426 5.28616L14.7138 13.5357C15.0393 13.8612 15.0393 14.3888 14.7138 14.7142C14.3884 15.0397 13.8608 15.0397 13.5353 14.7142L5.28574 6.46467C4.96031 6.13923 4.96031 5.61159 5.28574 5.28616Z" fill="#223263"/>
</g>
</svg>
