<svg width="24" height="24" viewBox="0 0 24 24" fill="none" xmlns="http://www.w3.org/2000/svg">
<path d="M9.34948 6.8835L9.35198 6.8845C9.40398 6.663 9.59298 6.5 9.82948 6.5H16.5655C16.574 6.5 16.5825 6.4965 16.591 6.497C16.4475 4.1075 14.443 3 12.6745 3H5.93848C5.70148 3 5.51248 3.1675 5.46098 3.3885L5.45848 3.3875L2.51398 16.9065L2.52048 16.907C2.51348 16.939 2.50098 16.9695 2.50098 17.004C2.50098 17.2805 2.72448 17.4995 3.00098 17.4995H7.03648L9.34948 6.8835Z" fill="#1565C0"/>
<path d="M16.5921 6.49695C16.6186 6.93495 16.5896 7.41145 16.4776 7.93795C15.8371 10.9354 13.5216 12.4954 10.6601 12.4954C10.6601 12.4954 8.92506 12.4954 8.50356 12.4954C8.24305 12.4954 8.12005 12.6484 8.06355 12.7654L7.19355 16.79L7.04105 17.5044H7.03805L6.40655 20.4025L6.41305 20.403C6.40605 20.4349 6.39355 20.4655 6.39355 20.5C6.39355 20.7765 6.61705 21 6.89355 21H10.5601L10.5666 20.995C10.8026 20.9915 10.9901 20.823 11.0391 20.601L11.0481 20.5935L11.9541 16.3854C11.9541 16.3854 12.0171 15.9839 12.4391 15.9839C12.8611 15.9839 14.5281 15.9839 14.5281 15.9839C17.3896 15.9839 19.7286 14.4309 20.3696 11.4329C21.0906 8.05295 18.6796 6.50945 16.5921 6.49695Z" fill="#039BE5"/>
<path d="M9.83 6.49975C9.593 6.49975 9.404 6.66275 9.3525 6.88425L9.35 6.88325L8.0625 12.7658C8.119 12.6488 8.242 12.4958 8.5025 12.4958C8.9245 12.4958 10.62 12.4958 10.62 12.4958C13.4815 12.4958 15.836 10.9358 16.4765 7.93825C16.589 7.41175 16.6175 6.93525 16.591 6.49725C16.583 6.49625 16.574 6.49975 16.566 6.49975H9.83Z" fill="#283593"/>
</svg>
